<svg id="Layer_1" data-name="Layer 1" xmlns="http://www.w3.org/2000/svg" xmlns:xlink="http://www.w3.org/1999/xlink" viewBox="0 0 70 58"><defs><style>.cls-1,.cls-2{fill:none;}.cls-1{clip-rule:evenodd;}.cls-15,.cls-3{fill:#fff;}.cls-4{clip-path:url(#clip-path);}.cls-5{clip-path:url(#clip-path-2);}.cls-6{isolation:isolate;}.cls-7{fill:url(#linear-gradient);}.cls-8{fill:url(#linear-gradient-2);}.cls-15,.cls-9{fill-rule:evenodd;}.cls-9{fill:url(#New_Gradient_Swatch_8);}.cls-10{fill:#4926e2;}.cls-11{fill:#fda8bf;}.cls-12{fill:url(#New_Gradient_Swatch_7);}.cls-13{fill:#5c008a;}.cls-14{fill:#ee9bc7;}</style><clipPath id="clip-path"><path class="cls-1" d="M32.0274,52.5108a6.4666,6.4666,0,0,1,.5447,3.0807,8.5179,8.5179,0,0,1-2.1225.24,14.0779,14.0779,0,0,1-5.9019-.2094c-3.8817-.8232-5.6765-4.9661-5.6765-4.9661s.0375-.0374.1117-.1007a.883.883,0,0,0-.37-.0324,24.798,24.798,0,0,1-5.7231.4333c-1.909,0-9.4651-2.8688-11.9-5.9447,0,0,3.78-.9233,3.78-1.7035S.4522,41.0862.4522,41.0862s-.6541-3.5988,3.974-7.1926a28.282,28.282,0,0,1,8.05-4.7416C10.0719,28.8307,3.2751,26.1261.99,23.2391c0,0,3.78-.9233,3.78-1.7035S.4522,19.3137.4522,19.3137s-.6541-3.5988,3.974-7.1926,8.0915-5.3,11.9836-5.4992,5.197-.2,5.197-.2S24.995,1.8478,26.775,1.8478c.89,0,13.927,2.7708,15.0562,4.5746a4.6755,4.6755,0,0,0,2.2559,2.1049c.5771.4323.2135.0866,2.8288.6709,6.5416,1.4615,5.6492,2.0353,10.5095,2.9229,1.9671.3593,10.9814-4.0706,11.8317-3.64.3959.2.7067,4.01-.841,6.5085s1.2424,4.5617-.0106,7.69,1.4349,5.4457.8515,6.5047-10.1552-3.4657-11.8317-3.1386c-1.5005.2928-5.7627,2.2963-14.0861,3.8288a8.1581,8.1581,0,0,1,.7478.4257c.5771.4323.2135.0866,2.8288.6709,6.5416,1.4615,5.6492,2.0353,10.5095,2.9229,1.9671.3592,10.9814-4.0707,11.8317-3.64.3959.2.7067,4.01-.841,6.5085s1.2424,4.5617-.0106,7.69,1.4349,5.4457.8515,6.5047-10.1552-3.4658-11.8317-3.1386-6.8,2.79-17.1841,4.3451A42.08,42.08,0,0,1,32.0274,52.5108Z"/></clipPath><clipPath id="clip-path-2"><rect class="cls-2" x="0.2796" y="0.1516" width="69.5409" height="57.668"/></clipPath><linearGradient id="linear-gradient" x1="34.0571" y1="1.8478" x2="34.0571" y2="21.494" gradientUnits="userSpaceOnUse"><stop offset="0" stop-color="#432fff"/><stop offset="1" stop-color="#4925e1"/></linearGradient><linearGradient id="linear-gradient-2" x1="33.625" y1="20.3363" x2="38.8266" y2="33.9603" gradientUnits="userSpaceOnUse"><stop offset="0" stop-color="#ffa9be"/><stop offset="1" stop-color="#9050ff"/></linearGradient><linearGradient id="New_Gradient_Swatch_8" x1="35.2196" y1="26.9485" x2="35.2196" y2="43.1958" gradientUnits="userSpaceOnUse"><stop offset="0" stop-color="#5019be"/><stop offset="1" stop-color="#5b078a"/></linearGradient><linearGradient id="New_Gradient_Swatch_7" x1="31.8345" y1="41.7282" x2="38.7913" y2="57.1121" xlink:href="#linear-gradient-2"/><symbol id="New_Symbol" data-name="New Symbol" viewBox="0 0 1.061 1.061"><circle class="cls-3" cx="0.5306" cy="0.5306" r="0.5306"/></symbol></defs><title>logo-night</title><g class="cls-4"><g class="cls-5"><g class="cls-6"><rect class="cls-7" x="-1.4017" y="1.8478" width="70.9176" height="19.7668"/><polyline class="cls-8" points="61.469 31.006 69.58 29.894 69.763 27.29 69.763 21.518 69.131 19.487 42.683 19.487 42.683 21.518 0.449 21.518 0.449 27.29 6.153 29.17 27.757 31.006 32.464 31.006"/><polygon class="cls-9" points="27.757 27.29 52.35 27.29 52.35 29.939 69.99 29.892 69.99 41.367 33.354 41.367 33.354 43.403 0.449 43.403 0.449 29.892 10.711 29.155 27.757 29.287 27.757 27.29"/><path class="cls-10" d="M27.2448,11.9879c1.1822.0608,2.3644.1237,3.4676.1851.3851.0214.7544.0424,1.106.0627.9971.0577,1.8337.11,2.476.1542a81.9972,81.9972,0,0,1,8.987,1.2958A60.6692,60.6692,0,0,1,56.857,18.3509c.4311.1911,1.9116.8509,1.946.8662a.7147.7147,0,0,0,.9583-.463.8618.8618,0,0,0-.4134-1.0731c-.0333-.0148-1.515-.6751-1.9476-.8669a61.8819,61.8819,0,0,0-13.86-4.7556A83.1962,83.1962,0,0,0,34.3857,10.74c-.6483-.0451-1.49-.0973-2.4912-.1552-.3526-.02-.7229-.0414-1.1089-.0629-1.1052-.0615-2.2892-.1245-3.4731-.1854-.4143-.0213-.7991-.0409-1.1444-.0582l-.3207-.016-.1137-.0056a.8231.8231,0,0,0-.687,1.2074c.01.0217.0311.068.0615.1368.0518.1173.11.2529.1725.4047.18.4353.36.91.5278,1.4072a16.3976,16.3976,0,0,1,.6044,2.2633c.0486.2656.0854.52.11.7628a12.6368,12.6368,0,0,1-.4321,3.45c-.1217.5419-.2639,1.1126-.4225,1.7022-.1942.7221-.4025,1.4352-.6108,2.107-.0728.2349-.14.4477-.2009.6344-.0211.065-.04.122-.0558.1705l-.0189.0568a.8587.8587,0,0,0,.4311,1.0644.7174.7174,0,0,0,.9505-.4827l.0216-.0652c.017-.0515.0367-.1116.0588-.18.0628-.1938.1327-.4139.2079-.6563.2146-.6922.4292-1.4267.63-2.1726.1647-.6127.3129-1.2074.4405-1.7755a13.8342,13.8342,0,0,0,.4673-4.0385q-.0444-.44-.13-.9085a18.153,18.153,0,0,0-.67-2.5165c-.1-.295-.2031-.5823-.3082-.8592Z"/><path class="cls-11" d="M27.2542,21.4969q.1455-.5795.268-1.1307a14.1851,14.1851,0,0,0,.4673-4.0906q-.0444-.4456-.13-.92a18.5771,18.5771,0,0,0-.67-2.5489c-.1-.2988-.2031-.59-.3082-.87l.3638.0189c1.1822.0616,2.3644.1253,3.4676.1875.3851.0217.7544.0429,1.106.0635.9971.0584,1.8337.111,2.476.1562a81.0184,81.0184,0,0,1,8.987,1.3125A60.1425,60.1425,0,0,1,56.857,18.4c.4311.1936,1.9116.8618,1.946.8773a.7125.7125,0,0,0,.9583-.4689.8776.8776,0,0,0-.4134-1.087c-.0333-.015-1.515-.6838-1.9476-.878a61.3442,61.3442,0,0,0-13.86-4.8169,82.2031,82.2031,0,0,0-9.1547-1.3353c-.6483-.0456-1.49-.0985-2.4912-.1572-.3526-.0207-.7229-.0419-1.1089-.0637-1.1052-.0623-2.2892-.1261-3.4731-.1878-.4143-.0216-.7991-.0414-1.1444-.059l-.3207-.0163-.1137-.0057a.8339.8339,0,0,0-.687,1.223c.01.022.0311.0689.0615.1385.0518.1188.11.2562.1725.41.18.441.36.922.5278,1.4254a16.78,16.78,0,0,1,.6044,2.2925c.0486.2691.0854.5271.11.7726a12.9566,12.9566,0,0,1-.4321,3.4941c-.1091.492-.2347,1.0074-.3737,1.5391Z"/><path class="cls-10" d="M21.2257,12.26c.0115.019.0358.06.071.1215.06.105.1277.2266.2006.3629.2093.3911.4189.8193.614,1.2692a11.7007,11.7007,0,0,1,.7388,2.231,5.6123,5.6123,0,0,1,.1287,1.1291,9.7214,9.7214,0,0,1-.5842,3.0929c-.13.3774-.2686.7278-.4071,1.041-.048.1086-.0923.2044-.1317.2861-.0226.0469-.0378.0774-.0445.09a.7785.7785,0,0,0,.2578,1.0093.649.649,0,0,0,.9242-.2816c.046-.0891.1213-.2454.216-.46.1556-.352.3108-.7432.4556-1.1648a11.25,11.25,0,0,0,.6707-3.6135,7.1943,7.1943,0,0,0-.1623-1.4567,13.2124,13.2124,0,0,0-.8359-2.5378c-.213-.491-.4407-.9563-.6687-1.3824-.1379-.2577-.2465-.4472-.3115-.5544a.6444.6444,0,0,0-.94-.2091A.7837.7837,0,0,0,21.2257,12.26Z"/><path class="cls-11" d="M23.5132,21.4969q.0773-.2079.1518-.4273a11.5491,11.5491,0,0,0,.6707-3.6639,7.3925,7.3925,0,0,0-.1623-1.4771,13.5291,13.5291,0,0,0-.8359-2.5733c-.213-.4979-.4407-.97-.6687-1.4017-.1379-.2613-.2465-.4534-.3115-.5621a.64.64,0,0,0-.94-.212.802.802,0,0,0-.1914,1.0412c.0115.0193.0358.0609.071.1232.06.1065.1277.23.2006.3679.2093.3966.4189.8308.614,1.2869a11.9808,11.9808,0,0,1,.7388,2.2622,5.7668,5.7668,0,0,1,.1287,1.1448,9.9793,9.9793,0,0,1-.5842,3.136c-.1162.3428-.24.6637-.3639.9552Z"/><polygon class="cls-12" points="69.601 56.124 0.399 56.124 0.399 43.403 33.304 43.403 33.302 41.333 69.601 41.333 69.601 56.124"/><path class="cls-13" d="M27.2448,34.0154c1.1822.0608,2.3644.1236,3.4676.1851.3851.0214.7544.0424,1.106.0627.9971.0577,1.8337.11,2.476.1542a82.0009,82.0009,0,0,1,8.987,1.2958A60.67,60.67,0,0,1,56.857,40.3785c.4311.1911,1.9116.8509,1.946.8662a.7147.7147,0,0,0,.9583-.463.8618.8618,0,0,0-.4134-1.0731c-.0333-.0148-1.515-.6751-1.9476-.8669a61.8808,61.8808,0,0,0-13.86-4.7556,83.1915,83.1915,0,0,0-9.1547-1.3183c-.6483-.0451-1.49-.0973-2.4912-.1552-.3526-.02-.7229-.0414-1.1089-.0629-1.1052-.0615-2.2892-.1244-3.4731-.1854-.4143-.0213-.7991-.0409-1.1444-.0582l-.3207-.016-.1137-.0056a.8231.8231,0,0,0-.687,1.2074c.01.0217.0311.068.0615.1368.0518.1173.11.2529.1725.4047.18.4353.36.91.5278,1.4072a16.3975,16.3975,0,0,1,.6044,2.2633c.0486.2656.0854.52.11.7628a12.6368,12.6368,0,0,1-.4321,3.45c-.1217.5419-.2639,1.1125-.4225,1.7022-.1942.7221-.4025,1.4352-.6108,2.107-.0728.2349-.14.4477-.2009.6344-.0211.065-.04.122-.0558.1705l-.0189.0568a.8587.8587,0,0,0,.4311,1.0644.7174.7174,0,0,0,.9505-.4827l.0216-.0652c.017-.0515.0367-.1116.0588-.18.0628-.1938.1327-.4139.2079-.6563.2146-.6922.4292-1.4267.63-2.1726.1647-.6127.3129-1.2074.4405-1.7755a13.8342,13.8342,0,0,0,.4673-4.0385q-.0444-.44-.13-.9085a18.1544,18.1544,0,0,0-.67-2.5165c-.1-.295-.2031-.5823-.3082-.8592Z"/><path class="cls-14" d="M27.2542,43.4027q.1455-.5721.268-1.1163a13.8342,13.8342,0,0,0,.4673-4.0385q-.0444-.44-.13-.9085a18.1544,18.1544,0,0,0-.67-2.5165c-.1-.295-.2031-.5823-.3082-.8592l.3638.0187c1.1822.0608,2.3644.1236,3.4676.1851.3851.0214.7544.0424,1.106.0627.9971.0577,1.8337.11,2.476.1542a82.0009,82.0009,0,0,1,8.987,1.2958A60.67,60.67,0,0,1,56.857,40.3454c.4311.1911,1.9116.8509,1.946.8662a.7147.7147,0,0,0,.9583-.463.8618.8618,0,0,0-.4134-1.0731c-.0333-.0148-1.515-.6751-1.9476-.8669A61.8808,61.8808,0,0,0,43.54,34.053a83.1915,83.1915,0,0,0-9.1547-1.3183c-.6483-.0451-1.49-.0973-2.4912-.1552-.3526-.02-.7229-.0414-1.1089-.0629-1.1052-.0615-2.2892-.1244-3.4731-.1854-.4143-.0213-.7991-.0409-1.1444-.0582l-.3207-.016-.1137-.0056a.8231.8231,0,0,0-.687,1.2074c.01.0217.0311.068.0615.1368.0518.1173.11.2529.1725.4047.18.4353.36.91.5278,1.4072a16.3975,16.3975,0,0,1,.6044,2.2633c.0486.2656.0854.52.11.7628a12.6368,12.6368,0,0,1-.4321,3.45c-.1091.4858-.2347.9946-.3737,1.5195Z"/><path class="cls-13" d="M21.2257,34.2872c.0115.019.0358.06.071.1215.06.105.1277.2266.2006.3629.2093.3911.4189.8193.614,1.2692a11.7,11.7,0,0,1,.7388,2.231,5.6123,5.6123,0,0,1,.1287,1.1291,9.7214,9.7214,0,0,1-.5842,3.0929c-.13.3774-.2686.7278-.4071,1.041-.048.1086-.0923.2044-.1317.2861-.0226.0469-.0378.0774-.0445.09a.7785.7785,0,0,0,.2578,1.0093.649.649,0,0,0,.9242-.2816c.046-.0891.1213-.2454.216-.46.1556-.352.3108-.7432.4556-1.1648a11.25,11.25,0,0,0,.6707-3.6135,7.1946,7.1946,0,0,0-.1623-1.4567,13.2133,13.2133,0,0,0-.8359-2.5378c-.213-.491-.4407-.9563-.6687-1.3824-.1379-.2577-.2465-.4472-.3115-.5544a.6444.6444,0,0,0-.94-.2091A.7837.7837,0,0,0,21.2257,34.2872Z"/><path class="cls-14" d="M23.5132,43.4027q.0773-.205.1518-.4214a11.25,11.25,0,0,0,.6707-3.6135,7.1946,7.1946,0,0,0-.1623-1.4567,13.2133,13.2133,0,0,0-.8359-2.5378c-.213-.491-.4407-.9563-.6687-1.3824-.1379-.2577-.2465-.4472-.3115-.5544a.6444.6444,0,0,0-.94-.2091.7837.7837,0,0,0-.1914,1.0268c.0115.019.0358.06.071.1215.06.105.1277.2266.2006.3629.2093.3911.4189.8193.614,1.2692a11.7,11.7,0,0,1,.7388,2.231,5.6123,5.6123,0,0,1,.1287,1.1291,9.7214,9.7214,0,0,1-.5842,3.0929c-.1162.3381-.24.6546-.3639.9421Z"/></g></g></g><rect class="cls-2" x="0.226" width="70" height="58"/><circle cx="12.226" cy="16" r="3"/><path class="cls-15" d="M9.226,15.7609l0-.0369a3.2337,3.2337,0,1,1,3.2323,3.3285,2.9854,2.9854,0,0,1-3.1865-2.7668,2.3586,2.3586,0,0,0,2.4457,2.0734A2.5669,2.5669,0,1,0,9.226,15.7609Z"/><circle class="cls-3" cx="10.5189" cy="16.6873" r="0.8242"/><circle cx="12.226" cy="37.9311" r="3"/><path class="cls-15" d="M9.226,37.692l0-.0369a3.2337,3.2337,0,1,1,3.2323,3.3285,2.9854,2.9854,0,0,1-3.1865-2.7668A2.3586,2.3586,0,0,0,11.7174,40.29,2.5669,2.5669,0,1,0,9.226,37.692Z"/><circle class="cls-3" cx="10.5189" cy="38.6185" r="0.8242"/><use width="1.0612" height="1.0612" transform="translate(26.5565 18.1029) scale(0.8573)" xlink:href="#New_Symbol"/><use width="1.0612" height="1.0612" transform="translate(26.9376 15.7416) scale(0.8565)" xlink:href="#New_Symbol"/><use width="1.0612" height="1.0612" transform="translate(28.9706 16.8415) scale(0.852)" xlink:href="#New_Symbol"/><use width="1.0612" height="1.0612" transform="translate(34.4163 19.1285) scale(0.8415)" xlink:href="#New_Symbol"/><use width="1.0612" height="1.0612" transform="translate(37.9832 13.2863) scale(0.8341)" xlink:href="#New_Symbol"/><use width="1.0612" height="1.0612" transform="translate(40.1145 7.6846) scale(0.8325)" xlink:href="#New_Symbol"/><use width="1.0612" height="1.0612" transform="translate(37.0889 8.0932) scale(0.8381)" xlink:href="#New_Symbol"/><use width="1.0612" height="1.0612" transform="translate(37.6422 16.4175) scale(0.8346)" xlink:href="#New_Symbol"/><use width="1.0612" height="1.0612" transform="translate(43.4684 17.7825) scale(0.8234)" xlink:href="#New_Symbol"/><use width="1.0612" height="1.0612" transform="translate(30.1468 22.0043) scale(0.8518)" xlink:href="#New_Symbol"/><use width="1.0612" height="1.0612" transform="translate(25.5503 52.1993) scale(0.8921)" xlink:href="#New_Symbol"/><use width="1.0612" height="1.0612" transform="translate(35.034 54.3576) scale(0.884)" xlink:href="#New_Symbol"/><use width="1.0612" height="1.0612" transform="translate(27.7729 20.6033) scale(0.8538)" xlink:href="#New_Symbol"/><use width="1.0612" height="1.0612" transform="translate(20.7029 18.8104) scale(0.869)" xlink:href="#New_Symbol"/><use width="1.0612" height="1.0612" transform="translate(35.0008 39.3222) scale(0.8597)" xlink:href="#New_Symbol"/><use width="1.0612" height="1.0612" transform="translate(43.0078 42.08) scale(0.8542)" xlink:href="#New_Symbol"/><use width="1.0612" height="1.0612" transform="translate(32.1333 28.6473) scale(0.8518)" xlink:href="#New_Symbol"/><use width="1.0612" height="1.0612" transform="translate(35.0494 44.8493) scale(0.8681)" xlink:href="#New_Symbol"/><use width="1.0612" height="1.0612" transform="translate(41.7573 35.1062) scale(0.8443)" xlink:href="#New_Symbol"/><use width="1.0612" height="1.0612" transform="translate(42.8986 27.9451) scale(0.8328)" xlink:href="#New_Symbol"/><use width="1.0612" height="1.0612" transform="translate(40.9928 29.1052) scale(0.8372)" xlink:href="#New_Symbol"/><use width="1.0612" height="1.0612" transform="translate(58.0139 30.3816) scale(0.8224)" xlink:href="#New_Symbol"/><use width="1.0612" height="1.0612" transform="translate(62.5989 34.6944) scale(0.8317)" xlink:href="#New_Symbol"/><use width="1.0612" height="1.0612" transform="translate(64.8379 32.3377) scale(0.8282)" xlink:href="#New_Symbol"/><use width="1.0612" height="1.0612" transform="translate(65.1198 18.0025) scale(0.8064)" xlink:href="#New_Symbol"/><use width="1.0612" height="1.0612" transform="translate(66.319 14.8962) scale(0.8077)" xlink:href="#New_Symbol"/><use width="1.0612" height="1.0612" transform="translate(64.5969 12.7857) scale(0.8054)" xlink:href="#New_Symbol"/><use width="1.0612" height="1.0612" transform="translate(59.8413 13.5197) scale(0.7973)" xlink:href="#New_Symbol"/><use width="1.0612" height="1.0612" transform="translate(53.8937 17.8453) scale(0.8039)" xlink:href="#New_Symbol"/><use width="1.0612" height="1.0612" transform="translate(50.4832 20.2849) scale(0.812)" xlink:href="#New_Symbol"/><use width="1.0612" height="1.0612" transform="translate(48.4717 24.7814) scale(0.8204)" xlink:href="#New_Symbol"/><use width="1.0612" height="1.0612" transform="translate(47.5519 31.6573) scale(0.8318)" xlink:href="#New_Symbol"/><use width="1.0612" height="1.0612" transform="translate(50.07 35.5837) scale(0.8363)" xlink:href="#New_Symbol"/><use width="1.0612" height="1.0612" transform="translate(58.186 38.4349) scale(0.8383)" xlink:href="#New_Symbol"/><use width="1.0612" height="1.0612" transform="translate(59.9156 42.5191) scale(0.8466)" xlink:href="#New_Symbol"/><use width="1.0612" height="1.0612" transform="translate(52.4582 45.8363) scale(0.8545)" xlink:href="#New_Symbol"/><use width="1.0612" height="1.0612" transform="translate(39.3241 46.6931) scale(0.8661)" xlink:href="#New_Symbol"/><use width="1.0612" height="1.0612" transform="translate(31.5385 42.9547) scale(0.87)" xlink:href="#New_Symbol"/><use width="1.0612" height="1.0612" transform="translate(30.0565 37.1539) scale(0.8645)" xlink:href="#New_Symbol"/><use width="1.0612" height="1.0612" transform="translate(17.7042 47.6343) scale(0.8975)" xlink:href="#New_Symbol"/><use width="1.0612" height="1.0612" transform="translate(12.798 5.0689) scale(0.8432)" xlink:href="#New_Symbol"/></svg>